<svg xmlns="http://www.w3.org/2000/svg" viewBox="0 0 582.001953125 650" overflow="visible"><g transform="translate(40, 400)"><path fill="#ffffff" stroke="#000" d="M180.64-198.32Q176.32-195.17 170.68-193.63Q165.04-192.09 155.59-192.09Q146.14-192.09 131.05-193.41L131.05-193.41Q127.54-183.89 123.88-171.14L123.88-171.14L107.03-113.72Q75.83-10.60 40.53 2L40.53 2Q38.04 3.03 34.15 3.03Q30.27 3.03 27.85 2.07Q25.44 1.12 23.83-0.34L23.83-0.34Q20.60-2.98 20.60-5.62Q20.60-8.25 21.92-9.13L21.92-9.13L25.73-11.48Q46.82-25.25 64.40-84.72L64.40-84.72L74.95-120.46Q89.16-168.65 101.46-196.19L101.46-196.19Q89.89-197.22 83.88-197.22L83.88-197.22Q66.60-197.22 58.98-192.38L58.98-192.38Q51.51-187.55 48.51-181.91Q45.51-176.27 45.36-174.07L45.36-174.07Q44.92-169.97 42.72-168.87Q40.53-167.78 37.38-167.78Q34.23-167.78 30.86-170.05Q27.49-172.32 25.29-175.83L25.29-175.83Q20.60-183.01 21.63-192.02Q22.65-201.03 27.56-207.55Q32.47-214.06 39.21-218.17L39.21-218.17Q51.66-225.78 65.50-225.78Q79.34-225.78 91.72-224.39Q104.10-223 116.40-221.24L116.40-221.24Q149.07-216.85 158.01-216.85Q166.94-216.85 171.26-217.87Q175.58-218.90 178.66-220.95Q181.74-223 182.98-223.66Q184.23-224.32 187.01-224.32L187.01-224.32Q191.40-224.32 190.82-217.65Q190.23-210.99 187.60-206.23Q184.96-201.47 180.64-198.32ZM406.88-27.59L406.88-27.59Q410.54-27.59 410.54-22.39Q410.54-17.19 408.64-13.82Q406.74-10.45 404.25-7.67Q401.76-4.88 397.95-2.39L397.95-2.39Q389.01 3.46 379.12 3.46Q369.24 3.46 363.45 1.05Q357.66-1.37 353.42-6.20L353.42-6.20Q344.33-16.31 344.33-34.18L344.33-34.18Q344.33-53.22 351.66-80.69Q358.98-108.16 365.79-127.71Q372.61-147.27 379.78-164.99L379.78-164.99L392.97-198.54Q371.29-179.05 338.04-116.65L338.04-116.65L302.59-49.56Q274.17 3.46 262.01 3.46L262.01 3.46Q250.14 3.46 245.75-6.79L245.75-6.79Q241.79-16.60 241.79-40.11Q241.79-63.63 245.53-85.23Q249.27-106.84 254.98-127.49L254.98-127.49Q264.94-163.97 280.76-199.86L280.76-199.86Q265.38-191.21 246.63-161.33L246.63-161.33Q232.27-137.45 226.41-126.47L226.41-126.47L188.62-56.89Q165.04-13.97 150.68-3.86L150.68-3.86Q140.28 3.46 128.27 3.46L128.27 3.46Q118.02 3.46 113.47-2.98L113.47-2.98Q111.72-5.62 111.72-7.81Q111.72-10.01 113.04-10.45L113.04-10.45Q122.12-12.94 125.85-15.65Q129.59-18.36 133.25-21.22Q136.91-24.07 143.94-33.38Q150.97-42.68 159.18-55.79Q167.38-68.90 176.32-85.16L176.32-85.16L194.92-119.44Q220.70-169.24 248.83-199.27L248.83-199.27Q258.79-209.96 268.46-215.82L268.46-215.82Q278.12-222.71 290.87-225.05L290.87-225.05Q294.38-225.78 297.39-225.78Q300.39-225.78 304.12-224.90Q307.86-224.03 310.64-222.12L310.64-222.12Q317.09-217.73 314.45-210.40L314.45-210.40Q313.28-206.01 309.91-197.22L309.91-197.22L302-176.27Q274.31-99.81 271.68-37.11L271.68-37.11Q279.44-50.44 287.35-66.26L287.35-66.26L303.90-98.93L321.34-132.18Q361.62-206.89 396.19-217.73L396.19-217.73Q403.37-220.07 408.20-220.07Q413.04-220.07 415.82-218.83Q418.60-217.58 420.80-215.68L420.80-215.68Q425.93-210.99 424.31-206.08Q422.70-201.17 420.07-193.56L420.07-193.56L398.83-131.59L391.21-107.28Q378.61-65.09 376.27-42.53L376.27-42.53Q375.39-33.01 378.39-27.66Q381.39-22.32 386.67-22.32Q391.94-22.32 394.94-23.12Q397.95-23.93 400.14-24.95L400.14-24.95L403.95-26.71Q405.56-27.59 406.88-27.59ZM437.28-2.98Q433.98-6.20 432.08-10.38Q430.17-14.55 430.17-20.05Q430.17-25.54 432.30-29.86Q434.42-34.18 437.64-36.82L437.64-36.82Q443.36-41.51 449.73-41.51Q456.10-41.51 460.57-40.63Q465.04-39.75 468.99-37.84L468.99-37.84Q478.07-33.16 478.07-24.37L478.07-24.37Q478.07-13.38 470.90-5.18L470.90-5.18Q464.16 2.44 456.91 3.17Q449.66 3.90 445.12 2.07Q440.57 0.24 437.28-2.98Z"/></g></svg>